<svg xmlns="http://www.w3.org/2000/svg" viewBox="0 0 27.36 26.46"><defs><style>.cls-1{fill:#1d2b4e;}.cls-1,.cls-2,.cls-3{stroke:#1d1d1b;stroke-miterlimit:10;stroke-width:0.25px;}.cls-2{fill:#fff;}.cls-3{fill:#e62d3b;}</style></defs><g id="Calque_2" data-name="Calque 2"><g id="Calque_1-2" data-name="Calque 1"><path class="cls-1" d="M12.66,1.58v13a1.44,1.44,0,0,1-.58,1.18L2.3,23a1.34,1.34,0,0,1-2.11-.89,6.92,6.92,0,0,1,.88-4.25L5.3,9.77l4-7.6a9.87,9.87,0,0,1,1-1.55A1.35,1.35,0,0,1,12.66,1.58Z"/><path class="cls-2" d="M25.05,23l-9.77-7.26a1.44,1.44,0,0,1-.58-1.18v-13a1.35,1.35,0,0,1,2.37-1,9.87,9.87,0,0,1,1,1.55l4,7.6,4.23,8.07a6.92,6.92,0,0,1,.88,4.25A1.35,1.35,0,0,1,25.05,23Z"/><path class="cls-3" d="M4.54,23.49l8.34-5.9a1.54,1.54,0,0,1,1.63,0l8.34,5.9c2.2,1.56,1.84,2.84-.82,2.84H5.34C2.7,26.32,2.33,25,4.54,23.49Z"/></g></g></svg>